HIERARCHY
ROOT hip
{
	OFFSET 0.00000 0.00000 0.00000
	CHANNELS 6 Xposition Yposition Zposition Zrotation Yrotation Xrotation 
	JOINT rightuplegdummy
	{
		OFFSET 0 0 0
		CHANNELS 3 Zrotation Yrotation Xrotation
		JOINT rightupleg
		{
			OFFSET -3.52197 -3.41223 0.04002
			CHANNELS 3 Zrotation Yrotation Xrotation
			JOINT rightleg
			{
				OFFSET 0.00006 -17.42390 1.60435
				CHANNELS 3 Zrotation Yrotation Xrotation
				JOINT rightfoot
				{
					OFFSET 0.06153 -16.50078 -1.63901
					CHANNELS 3 Zrotation Yrotation Xrotation
					JOINT righttoes
					{
						OFFSET 0.00298 -1.73825 3.34613
						CHANNELS 3 Zrotation Yrotation Xrotation
						End Site
						{
							OFFSET 0.00480 -0.05416 3.85043
						}
					}
				}
			}
		}
	}
	JOINT spinedummy
	{
		OFFSET 0 0 0
		CHANNELS 3 Zrotation Yrotation Xrotation
		JOINT spine
		{
			OFFSET 0.00000 4.68130 0.00000
			CHANNELS 3 Zrotation Yrotation Xrotation
			JOINT spine1
			{
				OFFSET -0.00000 10.10138 0.05002
				CHANNELS 3 Zrotation Yrotation Xrotation
				JOINT headdummy
				{
					OFFSET 0 0 0
					CHANNELS 3 Zrotation Yrotation Xrotation
					JOINT head
					{
						OFFSET -0.00000 3.43865 0.00438
						CHANNELS 3 Zrotation Yrotation Xrotation
						End Site
						{
							OFFSET -0.11417 5.02924 0.98962
						}
					}
				}
				JOINT leftshoulder1dummy
				{
					OFFSET 0 0 0
					CHANNELS 3 Zrotation Yrotation Xrotation
					JOINT leftshoulder1
					{
						OFFSET 3.53937 -0.14262 -0.08662
						CHANNELS 3 Zrotation Yrotation Xrotation
						JOINT leftarm
						{
							OFFSET 4.04833 -0.00133 0.12681
							CHANNELS 3 Zrotation Yrotation Xrotation
							JOINT leftforearm
							{
								OFFSET 10.33880 -0.01036 -0.55515
								CHANNELS 3 Zrotation Yrotation Xrotation
								JOINT lefthand
								{
									OFFSET 8.69677 0.07543 0.40060
									CHANNELS 3 Zrotation Yrotation Xrotation
									End Site
									{
										OFFSET 5.28377 -0.21905 0.59205
									}
								}
							}
						}
					}
				}
				JOINT rightshoulderdummy
				{
					OFFSET 0 0 0
					CHANNELS 3 Zrotation Yrotation Xrotation
					JOINT rightshoulder
					{
						OFFSET -3.53937 -0.14262 -0.08660
						CHANNELS 3 Zrotation Yrotation Xrotation
						JOINT rightarm
						{
							OFFSET -4.04833 -0.00133 0.12683
							CHANNELS 3 Zrotation Yrotation Xrotation
							JOINT rightforearm
							{
								OFFSET -10.37987 -0.01039 -0.55511
								CHANNELS 3 Zrotation Yrotation Xrotation
								JOINT righthand
								{
									OFFSET -8.67398 0.07538 0.40058
									CHANNELS 3 Zrotation Yrotation Xrotation
									End Site
									{
										OFFSET -5.24810 -0.21916 0.59204
									}
								}
							}
						}
					}
				}
			}
		}
	}
	JOINT leftuplegdummy
	{
		OFFSET 0 0 0
		CHANNELS 3 Zrotation Yrotation Xrotation
		JOINT leftupleg
		{
			OFFSET 3.52197 -3.41223 0.04002
			CHANNELS 3 Zrotation Yrotation Xrotation
			JOINT leftleg
			{
				OFFSET -0.00012 -17.42399 1.60337
				CHANNELS 3 Zrotation Yrotation Xrotation
				JOINT leftfoot
				{
					OFFSET -0.09972 -16.50070 -1.63802
					CHANNELS 3 Zrotation Yrotation Xrotation
					JOINT lefttoes
					{
						OFFSET -0.01575 -1.73823 3.34611
						CHANNELS 3 Zrotation Yrotation Xrotation
						End Site
						{
							OFFSET 0.03150 -0.01868 3.85031
						}
					}
				}
			}
		}
	}
}
MOTION
Frames: 6
Frame Time: 0.033333
3.9617 37.7393 28.0426 0.2106 0.7592 3.4465 0.0000 -0.0000 0.0000 -0.6324 -2.6585 -32.3519 -5.8435 -9.3661 25.5162 -5.7366 0.6795 1.9998 0.0000 0.0000 0.0000 0.0000 -0.0000 0.0000 -3.9387 -8.5645 -0.2262 19.5325 -12.1748 1.9683 -0.0000 -0.0000 -0.0000 -0.8804 9.7040 -22.6358 -0.0000 -0.0000 -0.0000 -39.4097 -13.5979 7.7951 -30.5640 -11.9810 18.3251 176.9183 -75.3758 -150.9938 1.8984 -4.4614 -0.1224 -0.0000 -0.0000 -0.0000 32.6990 6.3426 3.8099 37.9784 -17.5074 8.2779 -77.6750 89.4054 -55.7823 -1.2447 8.2913 -0.0752 0.0000 -0.0000 0.0000 13.6511 10.4490 -0.9826 4.2989 2.4921 52.7499 -26.2236 7.9703 22.4027 0.0000 0.0000 0.0000
3.4973 37.8709 29.1897 2.4704 -3.0420 1.0243 0.0000 -0.0000 0.0000 -2.3684 0.2407 -29.9179 -5.8280 -8.2574 28.6332 -5.7705 0.5682 -0.0901 0.0000 0.0000 0.0000 0.0000 -0.0000 0.0000 -2.1307 -7.8423 0.5615 16.5292 -10.8800 3.3119 -0.0000 -0.0000 -0.0000 -3.1196 11.2646 -21.0389 -0.0000 -0.0000 -0.0000 -38.7546 -13.3952 7.5866 -29.1169 -12.6839 17.7319 176.9281 -74.5716 -150.1854 0.6674 -4.7011 -0.0173 -0.0000 -0.0000 -0.0000 32.8174 6.3557 3.8267 37.5785 -14.7999 9.0337 -26.2440 88.6700 -4.1669 -0.4500 8.0590 0.0175 0.0000 -0.0000 0.0000 12.9849 10.7971 -10.4071 -3.5596 -1.1936 70.6438 -26.0368 8.3894 24.5188 0.0000 0.0000 0.0000
2.9733 38.3944 30.3492 6.0016 -8.2488 -2.0776 0.0000 -0.0000 0.0000 -5.0323 4.5881 -25.2843 -5.2963 -7.6760 27.9116 -6.5727 0.5728 -1.3111 0.0000 0.0000 0.0000 0.0000 -0.0000 0.0000 -1.9010 -6.0842 0.9735 12.0644 -8.4353 4.7018 -0.0000 -0.0000 -0.0000 -5.1992 12.4578 -19.4061 -0.0000 -0.0000 -0.0000 -38.2423 -13.2252 7.4206 -28.2259 -11.8550 16.1462 177.1745 -72.9365 -150.1898 -0.2693 -4.7264 0.0644 -0.0000 -0.0000 -0.0000 32.7642 6.3856 3.8330 36.4115 -9.9560 11.1865 -9.1787 86.2895 13.1382 -1.0078 8.0114 -0.0470 0.0000 -0.0000 0.0000 11.7857 16.2158 -19.8696 1.1626 -0.4431 86.4115 -22.6313 6.3154 20.0521 0.0000 0.0000 0.0000
2.5477 38.8327 31.2160 9.9468 -12.9937 -6.1250 0.0000 -0.0000 0.0000 -7.7216 8.5076 -20.6253 -4.7292 -7.0433 27.0387 -7.3681 0.5923 -2.0508 0.0000 0.0000 0.0000 0.0000 -0.0000 0.0000 -2.0398 -4.3545 3.5894 8.3145 -5.8701 4.4630 -0.0000 -0.0000 -0.0000 -6.9068 13.3938 -17.2408 -0.0000 -0.0000 -0.0000 -37.9838 -13.1061 7.3230 -27.5802 -9.1706 14.3484 177.5941 -70.5116 -151.2183 -0.4801 -4.5869 0.0810 -0.0000 -0.0000 -0.0000 32.3997 6.3980 3.8017 35.2008 -4.6766 14.8672 -5.2485 83.5749 16.9626 -3.0450 8.1134 -0.2850 0.0000 -0.0000 0.0000 10.8312 21.5454 -30.5355 5.4376 -1.6920 98.7774 -19.5243 4.9337 17.3939 0.0000 0.0000 0.0000
2.2820 39.1958 31.9745 14.5064 -16.9060 -11.1301 0.0000 -0.0000 0.0000 -10.9084 11.4300 -16.1448 -3.6803 -5.4175 26.9050 -7.4976 0.5340 -3.0437 0.0000 0.0000 0.0000 0.0000 -0.0000 0.0000 -2.0209 -2.7808 7.1617 3.7992 -3.2939 3.6654 -0.0000 -0.0000 -0.0000 -7.7286 13.6781 -15.4821 -0.0000 -0.0000 -0.0000 -37.4877 -12.9510 7.1700 -26.7477 -6.6766 12.9060 177.9228 -68.1128 -152.2438 -0.4020 -4.4574 0.0728 -0.0000 -0.0000 -0.0000 32.1018 6.3936 3.7706 34.4364 0.1160 18.3158 -4.0099 81.3826 18.5501 -3.0880 8.0563 -0.2890 0.0000 -0.0000 0.0000 10.3082 24.8805 -41.7889 0.2866 -0.4032 108.4180 -19.4944 4.7667 16.5034 0.0000 0.0000 0.0000
2.1685 39.5406 32.8284 19.6594 -20.9352 -16.6997 0.0000 -0.0000 0.0000 -14.5240 15.0631 -12.1600 -2.6629 -3.7823 27.1087 -7.3062 0.4451 -4.1412 0.0000 0.0000 0.0000 0.0000 -0.0000 0.0000 -1.3342 -1.1677 9.4917 -1.8392 -0.4728 4.2258 -0.0000 -0.0000 -0.0000 -8.2843 13.6879 -14.5062 -0.0000 -0.0000 -0.0000 -36.7699 -12.7581 6.9652 -26.1524 -4.9634 11.5637 178.1232 -66.0797 -152.7640 -0.8477 -4.4411 0.1103 -0.0000 -0.0000 -0.0000 31.5695 6.3684 3.7086 33.7548 4.7995 21.3129 -3.3675 79.6975 19.2748 -2.5985 7.9536 -0.2308 0.0000 -0.0000 0.0000 11.0083 27.8184 -52.0935 -4.5464 2.3379 115.0295 -21.3860 5.0930 15.6737 0.0000 0.0000 0.0000
